<?xml version="1.0" standalone="no"?>
<!DOCTYPE svg PUBLIC "-//W3C//DTD SVG 20010904//EN"
 "http://www.w3.org/TR/2001/REC-SVG-20010904/DTD/svg10.dtd">
<svg version="1.0" xmlns="http://www.w3.org/2000/svg"
 width="461.000000pt" height="461.000000pt" viewBox="0 0 461.000000 461.000000"
 preserveAspectRatio="xMidYMid meet">
<metadata>
Created by potrace 1.14, written by Peter Selinger 2001-2017
</metadata>
<g transform="translate(0.000000,461.000000) scale(0.100000,-0.100000)"
fill="#000000" stroke="none">
<path d="M2129 4606 c-2 -2 -33 -7 -69 -10 -146 -12 -350 -58 -510 -113 -607
-211 -1113 -681 -1363 -1268 -69 -162 -138 -397 -153 -520 -4 -27 -8 -52 -10
-56 -17 -30 -26 -423 -12 -574 59 -627 405 -1230 931 -1619 243 -180 594 -339
860 -392 10 -2 26 -5 35 -8 9 -3 40 -8 67 -11 28 -4 93 -13 145 -20 96 -13
453 -13 535 0 137 22 214 37 282 54 458 117 854 360 1169 716 235 266 404 581
495 922 25 94 45 193 54 263 4 30 11 82 15 115 9 65 5 425 -4 490 -30 200 -57
316 -108 470 -248 742 -877 1316 -1643 1501 -174 42 -291 56 -506 60 -113 2
-208 2 -210 0z m391 -61 c65 -6 143 -18 265 -40 200 -38 510 -164 710 -290
190 -119 416 -315 530 -460 22 -27 48 -59 58 -70 49 -53 185 -273 242 -389 81
-166 161 -399 189 -552 49 -265 54 -554 12 -804 -39 -232 -115 -461 -221 -667
-421 -812 -1289 -1289 -2200 -1209 -180 16 -446 74 -570 125 -11 5 -56 23
-100 41 -92 38 -250 119 -313 161 -24 16 -45 29 -48 29 -6 0 -193 140 -237
178 -127 109 -283 285 -389 437 -334 479 -468 1124 -353 1695 8 41 17 84 19
96 2 12 14 54 26 95 140 482 429 897 828 1193 156 115 304 197 527 292 64 27
265 84 360 103 137 27 157 30 260 37 50 3 91 7 93 9 4 4 234 -3 312 -10z"/>
<path d="M1565 3616 c-16 -12 -20 -29 -23 -95 -4 -75 -6 -81 -26 -82 -11 -1
-30 -3 -41 -4 -80 -11 -125 -17 -160 -20 -22 -3 -56 -7 -75 -10 -19 -2 -57 -7
-85 -10 -27 -3 -66 -8 -85 -10 -56 -7 -131 -15 -190 -19 -73 -6 -210 -16 -284
-21 -72 -5 -99 -27 -99 -78 0 -44 33 -90 88 -123 52 -30 111 -31 213 -3 34 10
75 20 90 23 15 2 83 14 152 26 160 27 182 30 385 56 22 2 59 7 83 10 23 4 43
2 43 -2 4 -26 7 -68 9 -144 2 -84 2 -86 -39 -153 -82 -134 -134 -278 -127
-352 6 -65 40 -156 108 -290 l70 -140 -6 -230 c-4 -126 -9 -278 -12 -336 -5
-102 -4 -108 19 -134 29 -34 72 -36 120 -6 59 36 63 55 39 183 -12 62 -24 147
-27 188 -10 134 -21 177 -73 290 -24 54 -25 61 -27 315 -2 143 -4 331 -5 417
l-3 157 61 103 c34 57 68 119 76 140 15 35 18 36 88 48 110 18 117 18 198 25
41 3 98 8 125 10 121 10 271 6 319 -9 70 -23 99 -20 130 10 26 27 28 32 29 69
1 78 -30 118 -106 135 -49 10 -209 15 -252 6 -11 -2 -51 -7 -90 -11 -38 -4
-148 -20 -244 -36 -96 -16 -183 -29 -192 -29 -12 0 -19 11 -24 41 -8 44 -33
74 -82 95 -40 17 -45 17 -68 0z"/>
<path d="M3558 3280 c-71 -13 -101 -58 -178 -265 -84 -228 -163 -470 -265
-815 -121 -411 -166 -553 -171 -548 -2 2 -13 51 -24 109 -29 148 -32 154 -105
190 -66 32 -68 36 -90 160 -10 57 -25 158 -31 209 -4 30 -7 61 -9 69 -1 8 16
66 37 129 54 159 59 206 31 314 -37 144 -59 175 -120 163 -119 -22 -196 -145
-276 -440 -14 -49 -28 -108 -33 -130 -4 -22 -8 -44 -10 -50 -6 -24 -34 -157
-39 -187 -4 -18 -19 -100 -35 -183 -16 -82 -43 -220 -59 -305 -16 -85 -30
-146 -31 -135 -1 11 -3 34 -5 50 -2 17 -6 57 -10 90 -3 33 -8 74 -10 90 -2 17
-7 55 -10 85 -3 30 -7 69 -9 85 -3 17 -7 57 -11 90 -3 33 -10 89 -15 125 -5
36 -12 103 -15 150 -4 46 -8 87 -10 90 -1 3 -6 41 -10 84 -4 43 -8 86 -10 95
-1 9 -6 45 -10 81 -7 72 -10 96 -20 155 -3 22 -8 56 -10 75 -15 121 -42 165
-94 150 -75 -21 -121 -65 -121 -114 0 -14 14 -87 30 -163 17 -76 33 -151 35
-168 3 -16 8 -41 10 -55 3 -14 8 -36 10 -50 3 -14 7 -38 9 -55 3 -16 7 -43 10
-60 10 -63 22 -147 31 -220 3 -27 8 -61 10 -75 2 -14 6 -52 10 -85 3 -33 12
-112 20 -175 7 -63 16 -142 20 -175 11 -103 21 -193 30 -265 2 -19 7 -64 10
-100 17 -210 18 -215 43 -242 32 -38 118 -10 163 52 10 14 21 52 25 85 3 33 8
62 9 65 2 3 6 29 10 59 4 30 9 63 11 75 6 32 33 186 40 231 3 22 21 117 41
210 19 94 37 181 39 195 8 36 61 284 78 361 30 136 84 300 112 342 11 17 13
16 18 -10 3 -15 15 -91 26 -169 l19 -141 -36 -109 c-46 -142 -52 -248 -14
-288 13 -14 47 -35 76 -47 l52 -21 27 -117 c43 -186 54 -250 71 -420 7 -66 10
-71 39 -71 25 0 131 65 164 100 44 47 110 222 185 490 102 362 162 571 176
620 26 88 124 371 127 367 6 -6 31 -171 39 -257 3 -36 8 -76 10 -90 2 -14 7
-65 10 -115 3 -49 8 -101 10 -115 2 -14 7 -65 10 -114 7 -99 12 -155 21 -236
3 -30 7 -66 9 -80 7 -72 17 -157 20 -170 1 -8 6 -44 10 -80 4 -36 9 -74 11
-85 2 -10 6 -37 9 -60 4 -22 9 -53 11 -70 3 -16 7 -41 9 -55 9 -66 38 -187 50
-210 21 -41 41 -52 94 -52 105 1 168 72 130 145 -7 12 -22 34 -35 49 -23 29
-48 101 -65 191 -5 29 -11 63 -14 77 -6 27 -52 341 -60 400 -6 52 -14 143 -21
245 -3 50 -7 106 -9 125 -2 19 -6 73 -10 120 -3 47 -8 99 -10 115 -2 17 -7 57
-10 90 -9 97 -50 409 -59 454 -16 74 -39 132 -56 141 -10 5 -20 9 -22 9 -2 -1
-20 -5 -40 -9z m61 -57 c11 -28 35 -150 46 -233 3 -25 8 -56 10 -70 2 -14 7
-50 10 -80 3 -30 7 -68 9 -85 2 -16 7 -61 11 -100 3 -38 8 -86 10 -105 3 -19
7 -71 10 -115 3 -44 7 -100 10 -125 2 -25 7 -83 10 -130 7 -104 14 -177 20
-210 2 -14 7 -45 9 -70 3 -25 10 -79 16 -120 7 -41 14 -91 17 -110 13 -90 56
-279 74 -318 10 -24 30 -57 44 -74 32 -37 32 -58 -1 -89 -20 -19 -36 -24 -81
-24 l-56 0 -18 50 c-15 45 -47 207 -63 326 -4 25 -9 57 -11 70 -5 36 -16 118
-21 169 -2 25 -6 59 -9 75 -2 17 -7 57 -10 90 -3 33 -8 71 -10 85 -2 14 -6 61
-10 105 -3 44 -8 103 -10 130 -3 28 -7 79 -10 115 -3 36 -7 83 -9 105 -3 22
-7 69 -11 105 -7 74 -9 94 -30 244 -13 94 -33 156 -50 156 -20 0 -151 -389
-239 -710 -102 -369 -121 -435 -158 -550 -22 -69 -56 -158 -75 -197 -35 -74
-65 -103 -150 -147 l-33 -17 -1 28 c-3 96 -30 261 -73 444 l-23 97 26 -9 c68
-25 73 -35 107 -219 3 -14 14 -58 26 -99 l22 -75 12 30 c11 25 148 476 225
739 98 333 241 750 295 857 43 85 119 118 143 61z m-1679 -219 c11 -29 36
-176 45 -269 3 -33 8 -71 11 -85 2 -14 6 -52 9 -85 3 -33 8 -76 10 -95 6 -34
9 -67 20 -185 3 -33 7 -71 10 -85 4 -22 9 -63 21 -180 7 -75 15 -139 19 -158
2 -12 6 -56 10 -99 3 -43 8 -85 10 -93 2 -8 7 -52 10 -98 4 -46 8 -91 10 -100
2 -9 4 -29 4 -44 1 -20 6 -28 19 -28 16 0 21 14 32 88 16 109 14 97 62 347 22
116 42 221 44 235 86 477 176 763 267 848 28 27 94 52 114 45 15 -6 62 -149
70 -214 4 -33 -2 -74 -22 -145 -15 -55 -31 -102 -35 -107 -3 -4 -14 46 -24
112 -10 66 -23 141 -30 167 l-12 47 -32 -39 c-18 -21 -45 -73 -61 -114 -44
-113 -74 -233 -146 -580 -19 -91 -41 -196 -49 -235 -20 -94 -72 -385 -82 -455
-16 -119 -46 -275 -54 -285 -14 -16 -73 -45 -93 -45 -21 0 -35 49 -42 150 -3
47 -8 101 -10 120 -3 19 -12 98 -20 175 -23 199 -24 214 -30 270 -3 28 -8 66
-10 85 -3 19 -9 76 -15 125 -11 97 -14 116 -30 245 -12 89 -17 128 -25 170 -2
14 -7 45 -10 70 -4 25 -22 119 -42 210 -19 91 -37 174 -39 185 -2 11 -6 32 -9
47 -8 35 8 64 48 88 43 27 66 25 77 -6z m725 -724 c14 -98 46 -274 51 -282 8
-13 -7 -9 -53 13 -68 33 -74 92 -27 257 9 34 18 61 20 60 1 -2 5 -23 9 -48z"/>
</g>
</svg>
